<?xml version="1.0" encoding="UTF-8" standalone="no"?>
<svg
   xmlns:dc="http://purl.org/dc/elements/1.1/"
   xmlns:cc="http://creativecommons.org/ns#"
   xmlns:rdf="http://www.w3.org/1999/02/22-rdf-syntax-ns#"
   xmlns:svg="http://www.w3.org/2000/svg"
   xmlns="http://www.w3.org/2000/svg"
   xmlns:sodipodi="http://sodipodi.sourceforge.net/DTD/sodipodi-0.dtd"
   xmlns:inkscape="http://www.inkscape.org/namespaces/inkscape"
   width="5000"
   height="2500"
   viewBox="0 0 512 256"
   preserveAspectRatio="xMidYMid"
   version="1.1"
   id="svg4"
   sodipodi:docname="backend-js-ps.svg"
   inkscape:version="0.92.5 (2060ec1f9f, 2020-04-08)">
  <metadata
     id="metadata10">
    <rdf:RDF>
      <cc:Work
         rdf:about="">
        <dc:format>image/svg+xml</dc:format>
        <dc:type
           rdf:resource="http://purl.org/dc/dcmitype/StillImage" />
        <dc:title></dc:title>
      </cc:Work>
    </rdf:RDF>
  </metadata>
  <defs
     id="defs8" />
  <sodipodi:namedview
     pagecolor="#ffffff"
     bordercolor="#666666"
     borderopacity="1"
     objecttolerance="10"
     gridtolerance="10"
     guidetolerance="10"
     inkscape:pageopacity="0"
     inkscape:pageshadow="2"
     inkscape:window-width="960"
     inkscape:window-height="1043"
     id="namedview6"
     showgrid="false"
     fit-margin-top="0"
     fit-margin-left="0"
     fit-margin-right="0"
     fit-margin-bottom="0"
     inkscape:zoom="0.06675088"
     inkscape:cx="182.2394"
     inkscape:cy="-495.51046"
     inkscape:window-x="0"
     inkscape:window-y="0"
     inkscape:window-maximized="0"
     inkscape:current-layer="svg4" />
  <path
     style="fill:#ffffff;fill-opacity:1;stroke:none;stroke-width:1.09222579;stroke-miterlimit:4;stroke-dasharray:none;stroke-opacity:1"
     d="M -1.5277131e-6,128.46101 V 0.32542085 H 129.08474 258.16949 V 128.46101 256.59662 H 129.08474 -1.5277131e-6 Z"
     id="path858-7"
     inkscape:connector-curvature="0" />
  <path
     d="M 149.333,159.147 H 86.4 c -9.173,0 -14.507,5.653 -14.507,13.76 0,7.253 4.907,12.373 11.947,12.373 8.213,0 12.907,-5.653 13.333,-13.76 h 18.24 c -0.96,19.84 -13.333,30.4 -31.786,30.4 -17.28,0 -30.187,-11.733 -30.187,-29.227 0,-18.24 13.547,-30.933 33.92,-30.933 h 62.293 c 21.014,0 37.014,-15.467 37.014,-36.267 0,-21.013 -14.294,-35.84 -34.667,-35.84 -20.16,0 -36.48,14.72 -36.48,41.92 v 17.814 H 97.067 v -17.814 c 0,-36.053 23.146,-59.413 55.253,-59.413 30.613,0 52.907,21.973 52.907,53.12 0.213,31.147 -23.68,53.867 -55.894,53.867 z M 128,256 C 199.573,256 256,199.36 256,128 256,56.64 199.573,0 128,0 56.427,0 0,56.853 0,128 0,199.36 56.427,256 128,256 Z"
     id="path2"
     inkscape:connector-curvature="0"
     style="fill:#169cee" />
  <path
     style="fill:#169cee;fill-opacity:1;stroke:none;stroke-width:1.08705127;stroke-miterlimit:4;stroke-dasharray:none;stroke-opacity:1"
     d="M 258.16949,128.32542 V 0.32542085 h 128 128 V 128.32542 256.32543 h -128 -128 z"
     id="path858"
     inkscape:connector-curvature="0" />
  <path
     style="stroke-width:0.63999999;fill:#ffffff;fill-opacity:1"
     inkscape:connector-curvature="0"
     class="st1"
     d="m 312.128,128.448 v 10.432 h 33.28 v 94.72 h 23.616 v -94.72 h 33.28 v -10.24 c 0,-5.76 0,-10.432 -0.256,-10.56 0,-0.192 -20.288,-0.256 -44.928,-0.256 l -44.8,0.192 v 10.496 z M 461.696,117.76 c 6.528,1.536 11.52,4.48 16,9.152 2.368,2.56 5.888,7.04 6.144,8.192 0,0.384 -11.072,7.872 -17.792,12.032 -0.256,0.192 -1.28,-0.896 -2.304,-2.56 -3.328,-4.736 -6.72,-6.784 -12.032,-7.168 -7.68,-0.512 -12.8,3.52 -12.8,10.24 0,2.048 0.384,3.2 1.152,4.864 1.728,3.52 4.928,5.632 14.848,9.984 18.304,7.872 26.24,13.056 31.04,20.48 5.44,8.32 6.656,21.376 3.008,31.168 -4.096,10.688 -14.08,17.92 -28.352,20.288 -4.48,0.768 -14.72,0.64 -19.52,-0.192 -10.24,-1.92 -20.032,-7.04 -26.048,-13.632 -2.368,-2.56 -6.912,-9.408 -6.656,-9.856 l 2.432,-1.536 9.6,-5.568 7.232,-4.224 1.664,2.24 c 2.112,3.328 6.848,7.808 9.6,9.344 8.32,4.288 19.456,3.712 24.96,-1.28 2.368,-2.176 3.392,-4.48 3.392,-7.68 0,-2.944 -0.448,-4.288 -1.92,-6.528 -2.048,-2.816 -6.144,-5.12 -17.664,-10.24 -13.248,-5.632 -18.88,-9.216 -24.128,-14.72 -3.008,-3.328 -5.76,-8.512 -7.04,-12.8 -0.96,-3.712 -1.28,-12.8 -0.384,-16.448 2.752,-12.8 12.416,-21.76 26.24,-24.32 4.48,-0.896 15.04,-0.512 19.456,0.64 z"
     id="path6" />
</svg>
