<?xml version="1.0" encoding="UTF-8" standalone="no"?>
<svg
   xmlns:dc="http://purl.org/dc/elements/1.1/"
   xmlns:cc="http://creativecommons.org/ns#"
   xmlns:rdf="http://www.w3.org/1999/02/22-rdf-syntax-ns#"
   xmlns:svg="http://www.w3.org/2000/svg"
   xmlns="http://www.w3.org/2000/svg"
   xmlns:sodipodi="http://sodipodi.sourceforge.net/DTD/sodipodi-0.dtd"
   xmlns:inkscape="http://www.inkscape.org/namespaces/inkscape"
   version="1.1"
   id="Layer_1"
   x="0px"
   y="0px"
   viewBox="0 0 512.00001 511.99999"
   enable-background="new 0 0 1748.006 1673.348"
   xml:space="preserve"
   sodipodi:docname="roman.svg"
   inkscape:version="0.92.5 (2060ec1f9f, 2020-04-08)"
   width="512"
   height="512"
   inkscape:export-filename="/home/eyder/workspace/minha_ies/docs-config/images/roman.png"
   inkscape:export-xdpi="54.838337"
   inkscape:export-ydpi="54.838337"><metadata
   id="metadata23"><rdf:RDF><cc:Work
       rdf:about=""><dc:format>image/svg+xml</dc:format><dc:type
         rdf:resource="http://purl.org/dc/dcmitype/StillImage" /><dc:title /></cc:Work></rdf:RDF></metadata><defs
   id="defs21">
	
	
	
	
	
	
	
</defs><sodipodi:namedview
   pagecolor="#ffffff"
   bordercolor="#666666"
   borderopacity="1"
   objecttolerance="10"
   gridtolerance="10"
   guidetolerance="10"
   inkscape:pageopacity="0"
   inkscape:pageshadow="2"
   inkscape:window-width="1920"
   inkscape:window-height="1043"
   id="namedview19"
   showgrid="false"
   inkscape:zoom="1.1282769"
   inkscape:cx="218.34231"
   inkscape:cy="173.87208"
   inkscape:window-x="0"
   inkscape:window-y="0"
   inkscape:window-maximized="1"
   inkscape:current-layer="Layer_1" />

<circle
   style="fill:#0050c3;fill-opacity:1;stroke:#0050c3;stroke-width:5.28204823;stroke-linejoin:round;stroke-miterlimit:4;stroke-dasharray:none;stroke-opacity:1;paint-order:markers fill stroke"
   id="path46"
   cx="256"
   cy="256"
   r="221.43579" /><g
   id="g44"
   transform="matrix(0.15928167,0,0,0.15928167,116.78726,122.73317)"
   style="fill:#ffffff;fill-opacity:1"><path
     d="M 127.3,389.426 C 376.182,271.829 625.15,154.341 874.01,36.679 c 248.816,117.706 497.763,235.15 746.645,352.769 -0.152,19.215 0.435,38.474 -0.348,57.689 -497.567,-0.174 -995.134,-0.174 -1492.701,-0.022 -0.697,-19.215 -0.175,-38.452 -0.306,-57.689 z"
     id="path2"
     inkscape:connector-curvature="0"
     style="fill:#ffffff;fill-opacity:1;stroke:#000000;stroke-width:0.204" /><path
     d="m 271.293,473.446 c 401.818,-0.131 803.615,-0.131 1205.411,0 -0.37,31.38 -0.13,62.759 -0.13,94.138 -242.919,0.5 -485.86,0.065 -728.779,0.218 -158.791,-0.152 -317.603,0.283 -476.394,-0.239 0.045,-31.358 0.24,-62.738 -0.108,-94.117 z"
     id="path4"
     inkscape:connector-curvature="0"
     style="fill:#ffffff;fill-opacity:1;stroke:#000000;stroke-width:0.204" /><path
     d="m 197.85,1353.769 c 450.781,-0.109 901.54,-0.109 1352.321,0 -0.283,31.358 -0.044,62.737 -0.13,94.095 27.005,0.109 54.011,0.109 81.016,0 -0.109,31.445 -0.109,62.911 0,94.356 26.2,0 52.401,-0.044 78.601,0.022 0.065,31.466 0.065,62.911 0,94.378 -557.105,0.087 -1114.189,0.065 -1671.295,0.022 -0.065,-31.467 -0.109,-62.933 0.022,-94.4 26.2,-0.044 52.401,-0.044 78.601,0 0.065,-31.467 0.065,-62.933 -0.022,-94.378 27.006,0.131 54.011,0.109 81.016,0.022 -0.087,-31.38 0.153,-62.759 -0.13,-94.117 z"
     id="path10"
     inkscape:connector-curvature="0"
     style="fill:#ffffff;fill-opacity:1;stroke:#000000;stroke-width:0.204" /><g
     transform="translate(-47.000636)"
     id="g35"
     style="fill:#ffffff;fill-opacity:1"><path
       style="fill:#ffffff;fill-opacity:1;stroke:#000000;stroke-width:0.204"
       inkscape:connector-curvature="0"
       id="path6"
       d="m 420.284,594.22 c 45.437,-0.065 90.874,-0.065 136.333,0 6.964,244.399 14.145,488.797 20.847,733.196 -58.516,-0.043 -117.031,0 -175.525,-0.022 6.289,-244.398 12.339,-488.775 18.345,-733.174 z" /><path
       style="fill:#ffffff;fill-opacity:1;stroke:#000000;stroke-width:0.204"
       inkscape:connector-curvature="0"
       id="path8"
       d="m 1282.748,594.155 c 45.459,0.109 90.94,-0.109 136.42,0.109 6.702,244.377 13.796,488.754 20.891,733.131 -58.516,0.065 -117.009,0 -175.503,0.044 5.81,-244.443 12.208,-488.864 18.192,-733.284 z" /><polygon
       id="polygon12"
       points="1101.261,594.185 1122.173,1327.403 946.605,1327.403 964.993,594.228 "
       transform="translate(-113.3844)"
       style="fill:#ffffff;fill-opacity:1" /></g></g></svg>